<svg xmlns="http://www.w3.org/2000/svg" width="500" height="500" viewBox="0 0 500 500" fill="none"><metadata><rdf:RDF xmlns:rdf="http://www.w3.org/1999/02/22-rdf-syntax-ns#" xmlns:dc="http://purl.org/dc/elements/1.1/"><rdf:Description><dc:creator>RealFaviconGenerator</dc:creator><dc:source>https://realfavicongenerator.net</dc:source></rdf:Description></rdf:RDF></metadata><path d="M398.793 267.887C398.793 284.006 385.856 297.071 369.898 297.071C353.938 297.071 341.002 284.006 341.002 267.887C341.002 251.769 353.938 238.705 369.898 238.705C385.856 238.705 398.793 251.769 398.793 267.887Z" fill="#E376E6"></path><path fill-rule="evenodd" clip-rule="evenodd" d="M383.017 65.6392C361.078 58.7717 341.002 76.2799 341.002 97.6735V172.754C314.145 177.973 282.923 180.992 249.5 180.992C216.077 180.992 184.854 177.973 157.998 172.754V97.6735C157.998 76.2799 137.922 58.7717 115.983 65.6392C95.6599 72.001 78.0742 80.076 65.2543 89.8542C52.6576 99.4623 42.4165 112.555 42.4165 128.973V376.38C42.4165 380.838 43.1906 385.096 44.5712 389.109C45.8102 392.712 47.5375 396.119 49.6323 399.302C56.3298 409.478 67.0418 417.819 79.4554 424.636C92.0482 431.555 107.421 437.465 124.684 442.288C159.224 451.936 202.63 457.583 249.5 457.583C288.864 457.583 325.74 453.599 356.953 446.633C387.869 439.733 414.377 429.652 432.122 416.709C436.438 413.562 440.511 410.029 444.053 406.115C451.499 397.883 456.583 387.962 456.583 376.38V128.973C456.583 112.555 446.343 99.4623 433.746 89.8542C420.925 80.076 403.34 72.001 383.017 65.6392ZM427.689 172.359C427.132 172.723 426.571 173.081 426.007 173.435C408.983 184.132 385.597 192.694 358.633 198.846C327.063 206.048 289.568 210.175 249.5 210.175C209.431 210.175 171.937 206.048 140.367 198.846C113.403 192.694 90.0175 184.132 72.9913 173.435C72.4289 173.081 71.8687 172.723 71.3119 172.359V362.101L129.931 306.698L156.361 284.356C175.57 268.117 204.35 269.007 222.463 286.508L286.439 348.318C291.73 353.429 300.345 354.222 306.634 349.952L311.08 346.932C333.505 331.706 363.754 333.422 384.224 351.219L423.593 385.452C426.817 381.565 427.689 378.467 427.689 376.38V172.359Z" fill="#C337FF"></path></svg>